<svg width="43" height="43" viewBox="0 0 43 43" fill="none" xmlns="http://www.w3.org/2000/svg">
<g clip-path="url(#clip0_410_62)">
<path d="M2.18586e-05 21.4286C2.18586e-05 9.59464 9.59467 0 21.4286 0C33.2625 0 42.8572 9.59464 42.8572 21.4286C42.8572 33.2625 33.2625 42.8571 21.4286 42.8571C17.9181 42.8621 14.4606 42.001 11.3625 40.35L2.84466 42.7732C2.4623 42.8818 2.05786 42.8864 1.67315 42.7864C1.28845 42.6864 0.937417 42.4855 0.656346 42.2044C0.375276 41.9233 0.174359 41.5723 0.0743586 41.1876C-0.0256416 40.8029 -0.0210972 40.3984 0.0875219 40.0161L2.50895 31.4982C0.856787 28.3993 -0.00500418 24.9404 2.18586e-05 21.4286Z" fill="#1976D2"/>
<path d="M7.05682 24.2727H8.31818L11.2841 31.517H11.3864L14.3523 24.2727H15.6136V33H14.625V26.3693H14.5398L11.8125 33H10.858L8.13068 26.3693H8.04545V33H7.05682V24.2727ZM17.5962 33V26.4545H18.6019V33H17.5962ZM18.1076 25.3636C17.9116 25.3636 17.7425 25.2969 17.6005 25.1634C17.4613 25.0298 17.3917 24.8693 17.3917 24.6818C17.3917 24.4943 17.4613 24.3338 17.6005 24.2003C17.7425 24.0668 17.9116 24 18.1076 24C18.3036 24 18.4712 24.0668 18.6104 24.2003C18.7525 24.3338 18.8235 24.4943 18.8235 24.6818C18.8235 24.8693 18.7525 25.0298 18.6104 25.1634C18.4712 25.2969 18.3036 25.3636 18.1076 25.3636ZM21.1939 26.4545L22.7621 29.1307L24.3303 26.4545H25.4893L23.3757 29.7273L25.4893 33H24.3303L22.7621 30.4602L21.1939 33H20.0348L22.1143 29.7273L20.0348 26.4545H21.1939ZM29.771 26.4545V27.3068H26.3789V26.4545H29.771ZM27.3675 24.8864H28.3732V31.125C28.3732 31.4091 28.4144 31.6222 28.4968 31.7642C28.582 31.9034 28.69 31.9972 28.8207 32.0455C28.9542 32.0909 29.0948 32.1136 29.2425 32.1136C29.3533 32.1136 29.4442 32.108 29.5153 32.0966C29.5863 32.0824 29.6431 32.071 29.6857 32.0625L29.8903 32.9659C29.8221 32.9915 29.7269 33.017 29.6048 33.0426C29.4826 33.071 29.3278 33.0852 29.1403 33.0852C28.8562 33.0852 28.5778 33.0241 28.305 32.902C28.0352 32.7798 27.8107 32.5938 27.6317 32.3438C27.4556 32.0938 27.3675 31.7784 27.3675 31.3977V24.8864ZM33.8725 33.1364C33.2816 33.1364 32.7631 32.9957 32.3171 32.7145C31.8739 32.4332 31.5273 32.0398 31.2773 31.5341C31.0302 31.0284 30.9066 30.4375 30.9066 29.7614C30.9066 29.0795 31.0302 28.4844 31.2773 27.9759C31.5273 27.4673 31.8739 27.0724 32.3171 26.7912C32.7631 26.5099 33.2816 26.3693 33.8725 26.3693C34.4634 26.3693 34.9805 26.5099 35.4237 26.7912C35.8697 27.0724 36.2163 27.4673 36.4634 27.9759C36.7134 28.4844 36.8384 29.0795 36.8384 29.7614C36.8384 30.4375 36.7134 31.0284 36.4634 31.5341C36.2163 32.0398 35.8697 32.4332 35.4237 32.7145C34.9805 32.9957 34.4634 33.1364 33.8725 33.1364ZM33.8725 32.233C34.3214 32.233 34.6907 32.1179 34.9805 31.8878C35.2702 31.6577 35.4847 31.3551 35.6239 30.9801C35.7631 30.6051 35.8327 30.1989 35.8327 29.7614C35.8327 29.3239 35.7631 28.9162 35.6239 28.5384C35.4847 28.1605 35.2702 27.8551 34.9805 27.6222C34.6907 27.3892 34.3214 27.2727 33.8725 27.2727C33.4237 27.2727 33.0543 27.3892 32.7646 27.6222C32.4748 27.8551 32.2603 28.1605 32.1211 28.5384C31.9819 28.9162 31.9123 29.3239 31.9123 29.7614C31.9123 30.1989 31.9819 30.6051 32.1211 30.9801C32.2603 31.3551 32.4748 31.6577 32.7646 31.8878C33.0543 32.1179 33.4237 32.233 33.8725 32.233Z" fill="white"/>
<path d="M11.0227 13C10.929 12.7131 10.8054 12.456 10.652 12.2287C10.5014 11.9986 10.321 11.8026 10.1108 11.6406C9.90341 11.4787 9.66761 11.3551 9.40341 11.2699C9.1392 11.1847 8.84943 11.142 8.53409 11.142C8.01705 11.142 7.54688 11.2756 7.12358 11.5426C6.70028 11.8097 6.36364 12.2031 6.11364 12.723C5.86364 13.2429 5.73864 13.8807 5.73864 14.6364C5.73864 15.392 5.86506 16.0298 6.1179 16.5497C6.37074 17.0696 6.71307 17.4631 7.14489 17.7301C7.5767 17.9972 8.0625 18.1307 8.60227 18.1307C9.10227 18.1307 9.54261 18.0241 9.9233 17.8111C10.3068 17.5952 10.6051 17.2912 10.8182 16.8991C11.0341 16.5043 11.142 16.0398 11.142 15.5057L11.4659 15.5739H8.84091V14.6364H12.1648V15.5739C12.1648 16.2926 12.0114 16.9176 11.7045 17.4489C11.4006 17.9801 10.9801 18.392 10.4432 18.6847C9.90909 18.9744 9.29545 19.1193 8.60227 19.1193C7.82955 19.1193 7.15057 18.9375 6.56534 18.5739C5.98295 18.2102 5.52841 17.6932 5.2017 17.0227C4.87784 16.3523 4.71591 15.5568 4.71591 14.6364C4.71591 13.946 4.80824 13.3253 4.9929 12.7741C5.1804 12.2202 5.4446 11.7486 5.78551 11.3594C6.12642 10.9702 6.52983 10.6719 6.99574 10.4645C7.46165 10.2571 7.97443 10.1534 8.53409 10.1534C8.99432 10.1534 9.4233 10.223 9.82102 10.3622C10.2216 10.4986 10.5781 10.6932 10.8906 10.946C11.206 11.196 11.4688 11.4957 11.679 11.8452C11.8892 12.1918 12.0341 12.5767 12.1136 13H11.0227ZM13.8384 19V12.4545H14.81V13.4432H14.8782C14.9975 13.1193 15.2134 12.8565 15.5259 12.6548C15.8384 12.4531 16.1907 12.3523 16.5827 12.3523C16.6566 12.3523 16.7489 12.3537 16.8597 12.3565C16.9705 12.3594 17.0543 12.3636 17.1112 12.3693V13.392C17.0771 13.3835 16.9989 13.3707 16.8768 13.3537C16.7575 13.3338 16.631 13.3239 16.4975 13.3239C16.1793 13.3239 15.8952 13.3906 15.6452 13.5241C15.3981 13.6548 15.2021 13.8366 15.0572 14.0696C14.9151 14.2997 14.8441 14.5625 14.8441 14.858V19H13.8384ZM22.4283 16.3239V12.4545H23.4339V19H22.4283V17.892H22.3601C22.2067 18.2244 21.968 18.5071 21.6442 18.7401C21.3203 18.9702 20.9112 19.0852 20.4169 19.0852C20.0078 19.0852 19.6442 18.9957 19.326 18.8168C19.0078 18.6349 18.7578 18.3622 18.576 17.9986C18.3942 17.6321 18.3033 17.1705 18.3033 16.6136V12.4545H19.3089V16.5455C19.3089 17.0227 19.4425 17.4034 19.7095 17.6875C19.9794 17.9716 20.3232 18.1136 20.7408 18.1136C20.9908 18.1136 21.245 18.0497 21.5036 17.9219C21.7649 17.794 21.9837 17.598 22.1598 17.3338C22.3388 17.0696 22.4283 16.733 22.4283 16.3239ZM25.2759 21.4545V12.4545H26.2475V13.4943H26.3668C26.4407 13.3807 26.543 13.2358 26.6737 13.0597C26.8072 12.8807 26.9975 12.7216 27.2447 12.5824C27.4947 12.4403 27.8327 12.3693 28.2589 12.3693C28.81 12.3693 29.2958 12.5071 29.7163 12.7827C30.1367 13.0582 30.4648 13.4489 30.7006 13.9545C30.9364 14.4602 31.0543 15.0568 31.0543 15.7443C31.0543 16.4375 30.9364 17.0384 30.7006 17.5469C30.4648 18.0526 30.1381 18.4446 29.7205 18.723C29.3029 18.9986 28.8214 19.1364 28.2759 19.1364C27.8555 19.1364 27.5188 19.0668 27.266 18.9276C27.0131 18.7855 26.8185 18.625 26.6822 18.446C26.5458 18.2642 26.4407 18.1136 26.3668 17.9943H26.2816V21.4545H25.2759ZM26.2646 15.7273C26.2646 16.2216 26.337 16.6577 26.4819 17.0355C26.6268 17.4105 26.8384 17.7045 27.1168 17.9176C27.3952 18.1278 27.7362 18.233 28.1396 18.233C28.56 18.233 28.9109 18.1222 29.1921 17.9006C29.4762 17.6761 29.6893 17.375 29.8313 16.9972C29.9762 16.6165 30.0487 16.1932 30.0487 15.7273C30.0487 15.267 29.9776 14.8523 29.8356 14.483C29.6964 14.1108 29.4847 13.8168 29.2006 13.6009C28.9194 13.3821 28.5657 13.2727 28.1396 13.2727C27.7305 13.2727 27.3867 13.3764 27.1083 13.5838C26.8299 13.7884 26.6197 14.0753 26.4776 14.4446C26.3356 14.8111 26.2646 15.2386 26.2646 15.7273ZM35.2475 19.1364C34.6566 19.1364 34.1381 18.9957 33.6921 18.7145C33.2489 18.4332 32.9023 18.0398 32.6523 17.5341C32.4052 17.0284 32.2816 16.4375 32.2816 15.7614C32.2816 15.0795 32.4052 14.4844 32.6523 13.9759C32.9023 13.4673 33.2489 13.0724 33.6921 12.7912C34.1381 12.5099 34.6566 12.3693 35.2475 12.3693C35.8384 12.3693 36.3555 12.5099 36.7987 12.7912C37.2447 13.0724 37.5913 13.4673 37.8384 13.9759C38.0884 14.4844 38.2134 15.0795 38.2134 15.7614C38.2134 16.4375 38.0884 17.0284 37.8384 17.5341C37.5913 18.0398 37.2447 18.4332 36.7987 18.7145C36.3555 18.9957 35.8384 19.1364 35.2475 19.1364ZM35.2475 18.233C35.6964 18.233 36.0657 18.1179 36.3555 17.8878C36.6452 17.6577 36.8597 17.3551 36.9989 16.9801C37.1381 16.6051 37.2077 16.1989 37.2077 15.7614C37.2077 15.3239 37.1381 14.9162 36.9989 14.5384C36.8597 14.1605 36.6452 13.8551 36.3555 13.6222C36.0657 13.3892 35.6964 13.2727 35.2475 13.2727C34.7987 13.2727 34.4293 13.3892 34.1396 13.6222C33.8498 13.8551 33.6353 14.1605 33.4961 14.5384C33.3569 14.9162 33.2873 15.3239 33.2873 15.7614C33.2873 16.1989 33.3569 16.6051 33.4961 16.9801C33.6353 17.3551 33.8498 17.6577 34.1396 17.8878C34.4293 18.1179 34.7987 18.233 35.2475 18.233Z" fill="white"/>
</g>
<defs>
<clipPath id="clip0_410_62">
<rect width="42.8572" height="42.8582" fill="white"/>
</clipPath>
</defs>
</svg>
