<svg width="44" height="43" viewBox="0 0 44 43" fill="none" xmlns="http://www.w3.org/2000/svg">
<path d="M0.761985 21.4286C0.761985 9.59464 10.3566 0 22.1906 0C34.0245 0 43.6191 9.59464 43.6191 21.4286C43.6191 33.2625 34.0245 42.8571 22.1906 42.8571C18.6801 42.8621 15.2225 42.001 12.1245 40.35L3.60663 42.7732C3.22426 42.8818 2.81983 42.8864 2.43512 42.7864C2.05041 42.6864 1.69938 42.4855 1.41831 42.2044C1.13724 41.9233 0.936322 41.5723 0.836322 41.1876C0.736321 40.8029 0.740866 40.3984 0.849485 40.0161L3.27091 31.4982C1.61875 28.3993 0.756959 24.9404 0.761985 21.4286Z" fill="#1976D2"/>
</svg>
