<svg width="69" height="60" viewBox="0 0 69 60" fill="none" xmlns="http://www.w3.org/2000/svg">
<path d="M34.5023 0C25.0798 0 16.5232 2.79898 10.26 7.40524C3.99631 12.0114 0 18.5033 0 25.7293C0 32.9555 3.99661 39.447 10.26 44.0533C11.1983 44.7435 12.1887 45.3913 13.2255 45.9971L11.3663 60L24.6742 50.4C27.7922 51.0874 31.0891 51.4585 34.5024 51.4585C43.9249 51.4585 52.477 48.6595 58.7403 44.053C65.0035 39.4473 69 32.9558 69 25.7293C69 18.5033 65.0035 12.0118 58.7402 7.40524C52.4768 2.79927 43.9248 0 34.5023 0ZM20.2304 31.7568C22.0945 31.7568 23.609 33.2571 23.609 35.1103C23.609 36.9631 22.0945 38.4685 20.2304 38.4685C18.3663 38.4685 16.8562 36.9631 16.8562 35.1103C16.8562 33.2574 18.3663 31.7565 20.2304 31.7565V31.7568ZM34.4564 31.7568C36.3206 31.7568 37.8307 33.2571 37.8307 35.1103C37.8304 36.9631 36.3206 38.4685 34.4564 38.4685C32.5923 38.4685 31.0778 36.9631 31.0778 35.1103C31.0778 33.2574 32.5923 31.7565 34.4564 31.7565V31.7568ZM49.1232 31.7568C50.9873 31.7568 52.4971 33.2571 52.4971 35.1103C52.4971 36.9631 50.9873 38.4685 49.1229 38.4685C47.2588 38.4685 45.7445 36.9631 45.7445 35.1103C45.7445 33.2574 47.259 31.7565 49.1232 31.7565V31.7568Z" fill="#262835"/>
</svg>
