<svg width="65" height="62" viewBox="0 0 65 62" fill="none" xmlns="http://www.w3.org/2000/svg">
<path d="M32.5 0C50.4493 0 65 13.8791 65 31C65 48.1209 50.4493 62 32.5 62C27.0029 62 21.8168 60.6958 17.2714 58.3929L4.4386 61.8738C3.84218 62.035 3.21144 62.0415 2.61152 61.8925C2.0116 61.7435 1.46426 61.4445 1.02603 61.0262C0.587803 60.608 0.274571 60.0858 0.118688 59.5135C-0.0371939 58.9411 -0.0300743 58.3395 0.139313 57.7707L3.7886 45.5324C1.29431 41.0583 -0.00683286 36.0673 2.69845e-05 31C2.69845e-05 13.8791 14.5484 0 32.5 0ZM32.5 15.5C31.8843 15.5 31.2939 15.7333 30.8585 16.1485C30.4232 16.5638 30.1786 17.127 30.1786 17.7143V28.7857H18.5714C17.9558 28.7857 17.3653 29.019 16.93 29.4343C16.4946 29.8495 16.25 30.4127 16.25 31C16.25 31.5873 16.4946 32.1505 16.93 32.5657C17.3653 32.981 17.9558 33.2143 18.5714 33.2143H30.1786V44.2857C30.1786 44.873 30.4232 45.4362 30.8585 45.8515C31.2939 46.2667 31.8843 46.5 32.5 46.5C33.1157 46.5 33.7062 46.2667 34.1415 45.8515C34.5769 45.4362 34.8214 44.873 34.8214 44.2857V33.2143H46.4286C47.0443 33.2143 47.6347 32.981 48.0701 32.5657C48.5054 32.1505 48.75 31.5873 48.75 31C48.75 30.4127 48.5054 29.8495 48.0701 29.4343C47.6347 29.019 47.0443 28.7857 46.4286 28.7857H34.8214V17.7143C34.8214 17.127 34.5769 16.5638 34.1415 16.1485C33.7062 15.7333 33.1157 15.5 32.5 15.5Z" fill="#262835"/>
</svg>
