<svg width="52" height="50" viewBox="0 0 52 50" fill="none" xmlns="http://www.w3.org/2000/svg">
<path d="M4.16 2.08333V47.9167C4.16 48.4692 3.94086 48.9991 3.55078 49.3898C3.16071 49.7805 2.63165 50 2.08 50C1.52835 50 0.999294 49.7805 0.609218 49.3898C0.219143 48.9991 0 48.4692 0 47.9167V2.08333C0 1.5308 0.219143 1.0009 0.609218 0.610195C0.999294 0.219494 1.52835 0 2.08 0C2.63165 0 3.16071 0.219494 3.55078 0.610195C3.94086 1.0009 4.16 1.5308 4.16 2.08333ZM8.32 18.75V8.33333C8.32 7.22826 8.75828 6.16846 9.53844 5.38705C10.3186 4.60565 11.3767 4.16667 12.48 4.16667H37.44C38.5433 4.16667 39.6014 4.60565 40.3816 5.38705C41.1617 6.16846 41.6 7.22826 41.6 8.33333V18.75C41.6 19.8551 41.1617 20.9149 40.3816 21.6963C39.6014 22.4777 38.5433 22.9167 37.44 22.9167H12.48C11.3767 22.9167 10.3186 22.4777 9.53844 21.6963C8.75828 20.9149 8.32 19.8551 8.32 18.75ZM12.48 18.75H37.44V8.33333H12.48V18.75ZM52 31.25V41.6667C52 42.7717 51.5617 43.8315 50.7816 44.6129C50.0014 45.3943 48.9433 45.8333 47.84 45.8333H12.48C11.3767 45.8333 10.3186 45.3943 9.53844 44.6129C8.75828 43.8315 8.32 42.7717 8.32 41.6667V31.25C8.32 30.1449 8.75828 29.0851 9.53844 28.3037C10.3186 27.5223 11.3767 27.0833 12.48 27.0833H47.84C48.9433 27.0833 50.0014 27.5223 50.7816 28.3037C51.5617 29.0851 52 30.1449 52 31.25ZM47.84 41.6667V31.25H12.48V41.6667H47.84Z" fill="#E4E3FF"/>
</svg>
