<svg width="54" height="78" viewBox="0 0 54 78" fill="none" xmlns="http://www.w3.org/2000/svg">
<path d="M9.25 39C9.25 29.6627 16.6632 21.996 26 21.482V29.7273V32.1229L27.7032 30.4382L40.2032 18.0746L40.922 17.3636L40.2032 16.6527L27.7032 4.28903L26 2.60439V5V13.2914C12.1086 13.8109 1 25.1074 1 39C1 44.0535 2.49758 48.7522 5.03316 52.707L5.69992 53.747L6.57822 52.8782L11.1407 48.3655L11.6742 47.8378L11.3167 47.1781C9.9538 44.6634 9.24389 41.8541 9.25 39.0021V39ZM48.9668 25.293L48.3001 24.253L47.4218 25.1218L42.8593 29.6345L42.3311 30.1569L42.6788 30.8135C43.9838 33.2777 44.75 36.0545 44.75 39C44.75 48.3373 37.3368 56.004 28 56.518V48.2727V45.8771L26.2968 47.5618L13.7968 59.9254L13.078 60.6364L13.7968 61.3473L26.2968 73.711L28 75.3956V73V64.7086C41.8914 64.1891 53 52.8926 53 39C53 33.9465 51.5024 29.2478 48.9668 25.293Z" fill="#262835" stroke="#262835" stroke-width="2"/>
</svg>
