<svg width="60" height="60" viewBox="0 0 60 60" fill="none" xmlns="http://www.w3.org/2000/svg">
<path d="M19.2857 8.5751V2.1427C19.2857 1.57442 19.5115 1.02942 19.9133 0.627584C20.3152 0.225749 20.8602 0 21.4286 0H38.5714C39.1397 0 39.6848 0.225749 40.0867 0.627584C40.4885 1.02942 40.7143 1.57442 40.7143 2.1427V8.5751H57.8571C58.4255 8.5751 58.9705 8.80085 59.3724 9.20269C59.7742 9.60452 60 10.1495 60 10.7178C60 11.2861 59.7742 11.8311 59.3724 12.2329C58.9705 12.6348 58.4255 12.8605 57.8571 12.8605H2.14286C1.57454 12.8605 1.02949 12.6348 0.627628 12.2329C0.225765 11.8311 0 11.2861 0 10.7178C0 10.1495 0.225765 9.60452 0.627628 9.20269C1.02949 8.80085 1.57454 8.5751 2.14286 8.5751H19.2857ZM23.5714 8.5751H36.4286V4.28969H23.5714V8.5751ZM8.57143 60C8.00311 60 7.45806 59.7743 7.0562 59.3724C6.65434 58.9706 6.42857 58.4256 6.42857 57.8573V12.8605H53.5714V57.8573C53.5714 58.4256 53.3457 58.9706 52.9438 59.3724C52.5419 59.7743 51.9969 60 51.4286 60H8.57143ZM23.5714 47.1438C24.1397 47.1438 24.6848 46.918 25.0867 46.5162C25.4885 46.1144 25.7143 45.5694 25.7143 45.0011V23.574C25.7143 23.0057 25.4885 22.4607 25.0867 22.0589C24.6848 21.6571 24.1397 21.4313 23.5714 21.4313C23.0031 21.4313 22.4581 21.6571 22.0562 22.0589C21.6543 22.4607 21.4286 23.0057 21.4286 23.574V45.0011C21.4286 45.5694 21.6543 46.1144 22.0562 46.5162C22.4581 46.918 23.0031 47.1438 23.5714 47.1438ZM36.4286 47.1438C36.9969 47.1438 37.5419 46.918 37.9438 46.5162C38.3457 46.1144 38.5714 45.5694 38.5714 45.0011V23.574C38.5714 23.0057 38.3457 22.4607 37.9438 22.0589C37.5419 21.6571 36.9969 21.4313 36.4286 21.4313C35.8602 21.4313 35.3152 21.6571 34.9133 22.0589C34.5115 22.4607 34.2857 23.0057 34.2857 23.574V45.0011C34.2857 45.5694 34.5115 46.1144 34.9133 46.5162C35.3152 46.918 35.8602 47.1438 36.4286 47.1438Z" fill="#262835"/>
</svg>
