<svg width="50" height="50" viewBox="0 0 50 50" fill="none" xmlns="http://www.w3.org/2000/svg">
<path d="M45.4281 20.9198H43.75V20.8334H25V29.1667H36.7739C35.0562 34.0177 30.4406 37.5 25 37.5C18.0968 37.5 12.5 31.9031 12.5 25C12.5 18.0969 18.0968 12.5 25 12.5C28.1864 12.5 31.0854 13.7021 33.2927 15.6656L39.1854 9.77294C35.4645 6.30523 30.4875 4.16669 25 4.16669C13.4948 4.16669 4.16663 13.4948 4.16663 25C4.16663 36.5052 13.4948 45.8334 25 45.8334C36.5052 45.8334 45.8333 36.5052 45.8333 25C45.8333 23.6031 45.6895 22.2396 45.4281 20.9198Z" fill="#FFC107"/>
<path d="M6.56873 15.3031L13.4135 20.3229C15.2656 15.7375 19.751 12.5 25 12.5C28.1864 12.5 31.0854 13.7021 33.2927 15.6656L39.1854 9.77294C35.4646 6.30523 30.4875 4.16669 25 4.16669C16.9979 4.16669 10.0583 8.6844 6.56873 15.3031Z" fill="#FF3D00"/>
<path d="M25 45.8333C30.3812 45.8333 35.2708 43.7739 38.9677 40.425L32.5198 34.9687C30.3582 36.6136 27.7162 37.5029 25 37.5C19.5812 37.5 14.9802 34.0448 13.2469 29.2229L6.45312 34.4573C9.90104 41.2041 16.9031 45.8333 25 45.8333Z" fill="#4CAF50"/>
<path d="M45.4281 20.9198H43.75V20.8333H25V29.1666H36.774C35.9523 31.4754 34.4722 33.4929 32.5167 34.9698L32.5198 34.9677L38.9677 40.4239C38.5115 40.8385 45.8333 35.4166 45.8333 25C45.8333 23.6031 45.6896 22.2396 45.4281 20.9198Z" fill="#1976D2"/>
</svg>
