<svg width="50" height="50" viewBox="0 0 50 50" fill="none" xmlns="http://www.w3.org/2000/svg">
    <path
        d="M10.4167 18.75L2.08332 18.75V43.75H10.4167M18.75 43.75L37.5 43.75C39.2292 43.75 40.7083 42.7083 41.3333 41.2083L47.625 26.5208C47.8125 26.0417 47.9167 25.5417 47.9167 25V20.8333C47.9167 19.7283 47.4777 18.6685 46.6963 17.8871C45.9149 17.1057 44.8551 16.6667 43.75 16.6667L30.6042 16.6667L32.5833 7.14583C32.625 6.9375 32.6458 6.72917 32.6458 6.5C32.6458 5.625 32.2917 4.85416 31.7292 4.29166L29.5208 2.08333L15.8125 15.8125C15.0417 16.5625 14.5833 17.6042 14.5833 18.75V39.5833C14.5833 40.6884 15.0223 41.7482 15.8037 42.5296C16.5851 43.311 17.6449 43.75 18.75 43.75Z"
        stroke="#14AE5C" stroke-width="3" />
</svg>