<svg width="50" height="50" viewBox="0 0 50 50" fill="none" xmlns="http://www.w3.org/2000/svg">
<path d="M12.5192 32.7888C12.0933 32.7888 11.6846 32.7074 11.2928 32.5447C10.901 32.3819 10.5433 32.154 10.2197 31.8611L0.945324 22.9991C0.315108 22.397 0 21.6646 0 20.802C0 20.3625 0.0851644 19.9557 0.255493 19.5813C0.425822 19.207 0.655766 18.8815 0.945324 18.6048C1.23488 18.3281 1.58406 18.1084 1.99285 17.9456C2.40164 17.7829 2.82746 17.7015 3.27031 17.7015C3.71317 17.7015 4.13047 17.7747 4.52223 17.9212C4.91398 18.0677 5.27167 18.2956 5.5953 18.6048L14.8441 27.4423C15.1507 27.7353 15.3807 28.0689 15.534 28.4433C15.6873 28.8176 15.7724 29.2245 15.7895 29.6639C15.7895 30.0871 15.7043 30.4858 15.534 30.8602C15.3637 31.2345 15.1337 31.5681 14.8441 31.8611C14.5546 32.154 14.2054 32.3819 13.7966 32.5447C13.3878 32.7074 12.962 32.7888 12.5192 32.7888ZM31.0169 15.1137C30.591 15.1137 30.1823 15.0323 29.7905 14.8696C29.3987 14.7068 29.041 14.479 28.7174 14.186L19.4686 5.3485C18.8213 4.73003 18.4977 3.9895 18.4977 3.12691C18.4977 2.68747 18.5829 2.28059 18.7532 1.90625C18.9235 1.53192 19.1535 1.20641 19.443 0.929731C19.7326 0.65305 20.0818 0.425194 20.4905 0.246165C20.8993 0.0671359 21.3252 -0.014241 21.768 0.00203442C22.6708 0.00203442 23.4372 0.303129 24.0674 0.905318L33.3419 9.76726C33.6484 10.0602 33.8784 10.3939 34.0317 10.7682C34.185 11.1425 34.2701 11.5494 34.2872 11.9889C34.2872 12.412 34.202 12.8108 34.0317 13.1851C33.8614 13.5594 33.6314 13.8931 33.3419 14.186C33.0523 14.479 32.7031 14.7068 32.2943 14.8696C31.8855 15.0323 31.4597 15.1137 31.0169 15.1137ZM17.7312 24.6592L8.48237 15.8217L16.556 8.10717L25.8048 16.9447L17.7312 24.6592ZM49.5146 45.1174C49.8382 45.4266 50 45.7928 50 46.216C50 46.6391 49.8382 47.0053 49.5146 47.3146C49.1909 47.6238 48.8077 47.7784 48.3648 47.7784C47.922 47.7784 47.5387 47.6238 47.2151 47.3146L22.9177 24.1221L25.2427 21.9006L49.5146 45.1174ZM0 46.8751H26.1625V50H0V46.8751ZM3.27031 40.6254H22.8922V43.7503H3.27031V40.6254Z" fill="#E4E3FF"/>
</svg>
