<svg width="70" height="70" viewBox="0 0 70 70" fill="none" xmlns="http://www.w3.org/2000/svg">
<path d="M55.6667 35.6667C56.8 35.6667 57.9 35.8 59 35.9667V19.9L34 9L9 19.9V36.2667C9 51.4 19.6667 65.5667 34 69C35.8333 68.5667 37.6 67.9333 39.3333 67.1667C37.0333 63.9 35.6667 59.9333 35.6667 55.6667C35.6667 44.6333 44.6333 35.6667 55.6667 35.6667Z" fill="#262835"/>
<path d="M53 38C44.7125 38 38 44.7125 38 53C38 61.2875 44.7125 68 53 68C61.2875 68 68 61.2875 68 53C68 44.7125 61.2875 38 53 38ZM53 43.175C55.325 43.175 57.2 45.0875 57.2 47.375C57.2 49.6625 55.2875 51.575 53 51.575C50.7125 51.575 48.8 49.6625 48.8 47.375C48.8 45.0875 50.675 43.175 53 43.175ZM53 63.3125C49.5125 63.3125 46.475 61.5875 44.6 58.925C44.7875 56.225 50.2625 54.875 53 54.875C55.7375 54.875 61.2125 56.225 61.4 58.925C59.525 61.5875 56.4875 63.3125 53 63.3125Z" fill="#262835"/>
</svg>
