<svg width="50" height="50" viewBox="0 0 50 50" fill="none" xmlns="http://www.w3.org/2000/svg">
    <path
        d="M39.5833 31.25H47.9166V6.25H39.5833M31.25 6.25H12.5C10.7708 6.25 9.29165 7.29167 8.66665 8.79167L2.37498 23.4792C2.18748 23.9583 2.08331 24.4583 2.08331 25V29.1667C2.08331 30.2717 2.5223 31.3315 3.3037 32.1129C4.0851 32.8943 5.14491 33.3333 6.24998 33.3333H19.3958L17.4166 42.8542C17.375 43.0625 17.3541 43.2708 17.3541 43.5C17.3541 44.375 17.7083 45.1458 18.2708 45.7083L20.4791 47.9167L34.1875 34.1875C34.9583 33.4375 35.4166 32.3958 35.4166 31.25V10.4167C35.4166 9.3116 34.9777 8.25179 34.1963 7.47039C33.4149 6.68899 32.355 6.25 31.25 6.25Z"
        stroke="#B21D20" stroke-width="3" />
</svg>