<svg width="84" height="86" viewBox="0 0 84 86" fill="none" xmlns="http://www.w3.org/2000/svg">
<rect width="83.6506" height="86" rx="41.8253" fill="#FAF5FB"/>
<path d="M18.3252 26.9H30.3252C30.5904 26.9 30.8448 27.1423 31.0323 27.5737C31.2198 28.005 31.3252 28.59 31.3252 29.2C31.3252 29.81 31.2198 30.395 31.0323 30.8263C30.8448 31.2577 30.5904 31.5 30.3252 31.5H18.3252C18.06 31.5 17.8056 31.2577 17.6181 30.8263C17.4306 30.395 17.3252 29.81 17.3252 29.2C17.3252 28.59 17.4306 28.005 17.6181 27.5737C17.8056 27.1423 18.06 26.9 18.3252 26.9ZM33.3252 20V24.6H15.3252V20H33.3252ZM27.3252 33.8H29.3252V66H27.3252V33.8ZM19.3252 33.8H21.3252V66H19.3252V33.8ZM23.3252 33.8H25.3252V66H23.3252V33.8Z" fill="#262835"/>
<path d="M33.3252 32C33.3252 32 40.3252 39.5413 40.3252 47.5C40.3252 55.4587 34.1748 63 33 64" stroke="#262835" stroke-width="4" stroke-linecap="round"/>
<path d="M45.3252 26.9H57.3252C57.5904 26.9 57.8448 27.1423 58.0323 27.5737C58.2198 28.005 58.3252 28.59 58.3252 29.2C58.3252 29.81 58.2198 30.395 58.0323 30.8263C57.8448 31.2577 57.5904 31.5 57.3252 31.5H45.3252C45.06 31.5 44.8056 31.2577 44.6181 30.8263C44.4306 30.395 44.3252 29.81 44.3252 29.2C44.3252 28.59 44.4306 28.005 44.6181 27.5737C44.8056 27.1423 45.06 26.9 45.3252 26.9ZM60.3252 20V24.6H42.3252V20H60.3252ZM54.3252 33.8H56.3252V66H54.3252V33.8ZM46.3252 33.8H48.3252V66H46.3252V33.8ZM50.3252 33.8H52.3252V66H50.3252V33.8Z" fill="#262835"/>
<path d="M61 32C61 32 67 35.649 67 39.5C67 43.351 61.5143 47 61 47" stroke="#262835" stroke-width="4" stroke-linecap="round"/>
<path d="M61 47L67 64" stroke="#262835" stroke-width="4" stroke-linecap="round"/>
</svg>
