<svg width="50" height="50" viewBox="0 0 50 50" fill="none" xmlns="http://www.w3.org/2000/svg">
<path d="M25 5.20831C25.8288 5.20831 26.6236 5.53755 27.2097 6.1236C27.7957 6.70966 28.125 7.50451 28.125 8.33331C28.125 9.16211 27.7957 9.95697 27.2097 10.543C26.6236 11.1291 25.8288 11.4583 25 11.4583H14.5833C14.307 11.4583 14.0421 11.5681 13.8467 11.7634C13.6514 11.9588 13.5416 12.2237 13.5416 12.5V37.5C13.5416 37.7762 13.6514 38.0412 13.8467 38.2365C14.0421 38.4319 14.307 38.5416 14.5833 38.5416H23.9583C24.7871 38.5416 25.582 38.8709 26.168 39.4569C26.7541 40.043 27.0833 40.8378 27.0833 41.6666C27.0833 42.4954 26.7541 43.2903 26.168 43.8764C25.582 44.4624 24.7871 44.7916 23.9583 44.7916H14.5833C12.6494 44.7916 10.7948 44.0234 9.42731 42.656C8.05985 41.2885 7.29163 39.4338 7.29163 37.5V12.5C7.29163 10.5661 8.05985 8.71145 9.42731 7.34399C10.7948 5.97654 12.6494 5.20831 14.5833 5.20831H25ZM37.625 16.8958L43.5187 22.7916C44.1039 23.3776 44.4326 24.1719 44.4326 25C44.4326 25.8281 44.1039 26.6224 43.5187 27.2083L37.627 33.1041C37.0408 33.6904 36.2457 34.0197 35.4166 34.0197C34.5876 34.0197 33.7924 33.6904 33.2062 33.1041C32.62 32.5179 32.2906 31.7228 32.2906 30.8937C32.2906 30.0647 32.62 29.2696 33.2062 28.6833L33.7645 28.125H25C24.1712 28.125 23.3763 27.7957 22.7903 27.2097C22.2042 26.6236 21.875 25.8288 21.875 25C21.875 24.1712 22.2042 23.3763 22.7903 22.7903C23.3763 22.2042 24.1712 21.875 25 21.875H33.7645L33.2062 21.3166C32.9161 21.0264 32.6859 20.6818 32.529 20.3026C32.372 19.9234 32.2913 19.5169 32.2914 19.1065C32.2915 18.6961 32.3724 18.2897 32.5295 17.9106C32.6867 17.5315 32.917 17.187 33.2073 16.8969C33.4975 16.6067 33.8421 16.3766 34.2213 16.2196C34.6005 16.0627 35.0069 15.9819 35.4174 15.982C35.8278 15.9821 36.2342 16.063 36.6133 16.2202C36.9924 16.3773 37.3369 16.6076 37.627 16.8979L37.625 16.8958Z" fill="#E4E3FF"/>
</svg>
