<svg width="56" height="56" viewBox="0 0 56 56" fill="none" xmlns="http://www.w3.org/2000/svg">
<path d="M28 16.536V24.6576M28 24.6576V32.7792M28 24.6576H35.5M28 24.6576H20.5" stroke="#faf5fb" stroke-width="5" stroke-linecap="round"/>
<path d="M33 46.3152C42.4275 46.3152 47.1425 46.3152 50.07 43.1423C52.9975 39.9695 53 34.8664 53 24.6576C53 14.4487 53 9.34297 50.07 6.17284C47.14 3.00271 42.4275 3 33 3H23C13.5725 3 8.8575 3 5.93 6.17284C3.0025 9.34567 3 14.4487 3 24.6576C3 34.8664 3 39.9722 5.93 43.1423C7.5625 44.9129 9.75 45.6952 13 46.039" stroke="#faf5fb" stroke-width="5" stroke-linecap="round" stroke-linejoin="round"/>
<path d="M33 46.3152C29.91 46.3152 26.505 47.6688 23.3975 49.4149C18.4025 52.2223 15.905 53.6273 14.675 52.7313C13.445 51.8352 13.6775 49.063 14.145 43.5159L14.25 42.2544" stroke="#faf5fb" stroke-width="5" stroke-linecap="round"/>
</svg>
