<svg width="50" height="50" viewBox="0 0 50 50" fill="none" xmlns="http://www.w3.org/2000/svg">
<g clip-path="url(#clip0_266_10)">
<path fill-rule="evenodd" clip-rule="evenodd" d="M45.3125 25C45.3125 30.3872 43.1724 35.5538 39.3631 39.3631C35.5538 43.1724 30.3872 45.3125 25 45.3125C19.6128 45.3125 14.4462 43.1724 10.6369 39.3631C6.82756 35.5538 4.6875 30.3872 4.6875 25C4.6875 19.6128 6.82756 14.4462 10.6369 10.6369C14.4462 6.82756 19.6128 4.6875 25 4.6875C30.3872 4.6875 35.5538 6.82756 39.3631 10.6369C43.1724 14.4462 45.3125 19.6128 45.3125 25ZM50 25C50 31.6304 47.3661 37.9893 42.6777 42.6777C37.9893 47.3661 31.6304 50 25 50C18.3696 50 12.0107 47.3661 7.32233 42.6777C2.63392 37.9893 0 31.6304 0 25C0 18.3696 2.63392 12.0107 7.32233 7.32233C12.0107 2.63392 18.3696 0 25 0C31.6304 0 37.9893 2.63392 42.6777 7.32233C47.3661 12.0107 50 18.3696 50 25ZM15.3969 15.5937C14.5073 16.9354 14.0625 18.2583 14.0625 19.5625C14.0625 20.1979 14.3438 20.7875 14.9062 21.3313C15.4688 21.875 16.1573 22.1458 16.9719 22.1437C18.3573 22.1437 19.2979 21.3667 19.7938 19.8125C20.3188 18.3271 20.9604 17.2021 21.7188 16.4375C22.4771 15.675 23.6583 15.2937 25.2625 15.2937C26.6333 15.2937 27.7531 15.6719 28.6219 16.4281C29.4885 17.1865 29.9219 18.1156 29.9219 19.2156C29.9257 19.7675 29.7787 20.3099 29.4969 20.7844C29.2073 21.2661 28.8542 21.7065 28.4469 22.0938C27.7898 22.6955 27.1145 23.277 26.4219 23.8375C25.3594 24.7188 24.5135 25.4792 23.8844 26.1187C23.2594 26.7604 22.7563 27.5031 22.375 28.3469C21.3687 32.2375 26.5938 32.55 27.8 29.7719C27.9458 29.5052 28.1677 29.2094 28.4656 28.8844C28.7656 28.5615 29.1635 28.1865 29.6594 27.7594C30.9238 26.7064 32.1677 25.6291 33.3906 24.5281C34.0823 23.8906 34.6792 23.1302 35.1813 22.2469C35.6999 21.3064 35.9608 20.2456 35.9375 19.1719C35.9375 17.6885 35.4958 16.3135 34.6125 15.0469C33.7313 13.7781 32.4813 12.776 30.8625 12.0406C29.2438 11.3052 27.3771 10.9375 25.2625 10.9375C22.9875 10.9375 20.9969 11.3781 19.2906 12.2594C17.5844 13.1406 16.2865 14.2542 15.3969 15.5937ZM22.0844 37.7188C22.0844 38.5476 22.4136 39.3424 22.9997 39.9285C23.5857 40.5145 24.3806 40.8438 25.2094 40.8438C26.0382 40.8438 26.833 40.5145 27.4191 39.9285C28.0051 39.3424 28.3344 38.5476 28.3344 37.7188C28.3344 36.8899 28.0051 36.0951 27.4191 35.509C26.833 34.923 26.0382 34.5938 25.2094 34.5938C24.3806 34.5938 23.5857 34.923 22.9997 35.509C22.4136 36.0951 22.0844 36.8899 22.0844 37.7188Z" fill="#E4E3FF"/>
</g>
<defs>
<clipPath id="clip0_266_10">
<rect width="50" height="50" fill="white"/>
</clipPath>
</defs>
</svg>
